<mxfile host="app.diagrams.net" agent="Mozilla/5.0 (Windows NT 10.0; Win64; x64; rv:139.0) Gecko/20100101 Firefox/139.0" version="27.1.4">
  <diagram name="Page-1" id="P4cRexchnfpftTeTJ_rp">
    <mxGraphModel dx="1226" dy="629" grid="1" gridSize="10" guides="1" tooltips="1" connect="1" arrows="1" fold="1" page="1" pageScale="1" pageWidth="850" pageHeight="1100" math="0" shadow="0">
      <root>
        <mxCell id="0" />
        <mxCell id="1" parent="0" />
        <mxCell id="mWUIPyh_Am5T3KipkHSC-200" value="" style="rounded=1;whiteSpace=wrap;html=1;arcSize=11;fillColor=#fff2cc;strokeColor=#d6b656;" vertex="1" parent="1">
          <mxGeometry x="60" y="200" width="560" height="140" as="geometry" />
        </mxCell>
        <mxCell id="mWUIPyh_Am5T3KipkHSC-199" value="" style="rounded=1;whiteSpace=wrap;html=1;arcSize=11;fillColor=#fff2cc;strokeColor=#d6b656;" vertex="1" parent="1">
          <mxGeometry x="50" y="210" width="560" height="140" as="geometry" />
        </mxCell>
        <mxCell id="mWUIPyh_Am5T3KipkHSC-198" value="" style="rounded=1;whiteSpace=wrap;html=1;arcSize=11;fillColor=#fff2cc;strokeColor=#d6b656;" vertex="1" parent="1">
          <mxGeometry x="40" y="220" width="560" height="140" as="geometry" />
        </mxCell>
        <mxCell id="mWUIPyh_Am5T3KipkHSC-189" value="" style="rounded=1;whiteSpace=wrap;html=1;arcSize=3;fillColor=#fff2cc;strokeColor=#d6b656;" vertex="1" parent="1">
          <mxGeometry y="400" width="820" height="620" as="geometry" />
        </mxCell>
        <mxCell id="mWUIPyh_Am5T3KipkHSC-136" style="edgeStyle=orthogonalEdgeStyle;rounded=0;orthogonalLoop=1;jettySize=auto;html=1;entryX=0.5;entryY=0;entryDx=0;entryDy=0;exitX=1;exitY=0.5;exitDx=0;exitDy=0;exitPerimeter=0;fillColor=#dae8fc;strokeColor=#6c8ebf;strokeWidth=7;" edge="1" parent="1" source="mWUIPyh_Am5T3KipkHSC-56" target="mWUIPyh_Am5T3KipkHSC-129">
          <mxGeometry relative="1" as="geometry" />
        </mxCell>
        <mxCell id="mWUIPyh_Am5T3KipkHSC-137" style="edgeStyle=orthogonalEdgeStyle;rounded=0;orthogonalLoop=1;jettySize=auto;html=1;entryX=0.5;entryY=0;entryDx=0;entryDy=0;exitX=1;exitY=0;exitDx=0;exitDy=159.32758620689654;exitPerimeter=0;fillColor=#dae8fc;strokeColor=#6c8ebf;strokeWidth=7;" edge="1" parent="1" source="mWUIPyh_Am5T3KipkHSC-93" target="mWUIPyh_Am5T3KipkHSC-131">
          <mxGeometry relative="1" as="geometry" />
        </mxCell>
        <mxCell id="mWUIPyh_Am5T3KipkHSC-123" value="" style="shape=cylinder3;whiteSpace=wrap;html=1;boundedLbl=1;backgroundOutline=1;size=15;fillColor=#ffe6cc;strokeColor=#d79b00;direction=south;" vertex="1" parent="1">
          <mxGeometry x="500" y="440" width="40" height="120" as="geometry" />
        </mxCell>
        <mxCell id="mWUIPyh_Am5T3KipkHSC-119" value="" style="shape=cylinder3;whiteSpace=wrap;html=1;boundedLbl=1;backgroundOutline=1;size=11.344827586206918;direction=south;fillColor=#ffe6cc;strokeColor=#d79b00;" vertex="1" parent="1">
          <mxGeometry x="360" y="640" width="70" height="40" as="geometry" />
        </mxCell>
        <mxCell id="mWUIPyh_Am5T3KipkHSC-58" value="" style="group" vertex="1" connectable="0" parent="1">
          <mxGeometry x="40" y="600" width="220" height="40" as="geometry" />
        </mxCell>
        <mxCell id="mWUIPyh_Am5T3KipkHSC-56" value="" style="shape=cylinder3;whiteSpace=wrap;html=1;boundedLbl=1;backgroundOutline=1;size=11.344827586206918;direction=south;fillColor=#e1d5e7;strokeColor=#9673a6;" vertex="1" parent="mWUIPyh_Am5T3KipkHSC-58">
          <mxGeometry width="220" height="40" as="geometry" />
        </mxCell>
        <mxCell id="mWUIPyh_Am5T3KipkHSC-54" value="" style="group" vertex="1" connectable="0" parent="mWUIPyh_Am5T3KipkHSC-58">
          <mxGeometry x="10" width="190" height="30" as="geometry" />
        </mxCell>
        <mxCell id="mWUIPyh_Am5T3KipkHSC-44" value="" style="rounded=0;whiteSpace=wrap;html=1;fillColor=#f5f5f5;fontColor=#333333;strokeColor=#666666;direction=south;" vertex="1" parent="mWUIPyh_Am5T3KipkHSC-54">
          <mxGeometry y="10" width="10" height="20" as="geometry" />
        </mxCell>
        <mxCell id="mWUIPyh_Am5T3KipkHSC-45" value="" style="rounded=0;whiteSpace=wrap;html=1;fillColor=#f5f5f5;fontColor=#333333;strokeColor=#666666;direction=south;" vertex="1" parent="mWUIPyh_Am5T3KipkHSC-54">
          <mxGeometry x="20" y="10" width="10" height="20" as="geometry" />
        </mxCell>
        <mxCell id="mWUIPyh_Am5T3KipkHSC-46" value="" style="rounded=0;whiteSpace=wrap;html=1;fillColor=#f5f5f5;fontColor=#333333;strokeColor=#666666;direction=south;" vertex="1" parent="mWUIPyh_Am5T3KipkHSC-54">
          <mxGeometry x="40" y="10" width="10" height="20" as="geometry" />
        </mxCell>
        <mxCell id="mWUIPyh_Am5T3KipkHSC-47" value="" style="rounded=0;whiteSpace=wrap;html=1;fillColor=#f5f5f5;fontColor=#333333;strokeColor=#666666;direction=south;" vertex="1" parent="mWUIPyh_Am5T3KipkHSC-54">
          <mxGeometry x="60" y="10" width="10" height="20" as="geometry" />
        </mxCell>
        <mxCell id="mWUIPyh_Am5T3KipkHSC-48" value="" style="rounded=0;whiteSpace=wrap;html=1;fillColor=#f5f5f5;fontColor=#333333;strokeColor=#666666;direction=south;" vertex="1" parent="mWUIPyh_Am5T3KipkHSC-54">
          <mxGeometry x="80" y="10" width="10" height="20" as="geometry" />
        </mxCell>
        <mxCell id="mWUIPyh_Am5T3KipkHSC-49" value="" style="rounded=0;whiteSpace=wrap;html=1;fillColor=#f5f5f5;fontColor=#333333;strokeColor=#666666;direction=south;" vertex="1" parent="mWUIPyh_Am5T3KipkHSC-54">
          <mxGeometry x="100" y="10" width="10" height="20" as="geometry" />
        </mxCell>
        <mxCell id="mWUIPyh_Am5T3KipkHSC-50" value="" style="rounded=0;whiteSpace=wrap;html=1;fillColor=#f5f5f5;fontColor=#333333;strokeColor=#666666;direction=south;" vertex="1" parent="mWUIPyh_Am5T3KipkHSC-54">
          <mxGeometry x="120" y="10" width="10" height="20" as="geometry" />
        </mxCell>
        <mxCell id="mWUIPyh_Am5T3KipkHSC-51" value="" style="rounded=0;whiteSpace=wrap;html=1;fillColor=#f5f5f5;fontColor=#333333;strokeColor=#666666;direction=south;" vertex="1" parent="mWUIPyh_Am5T3KipkHSC-54">
          <mxGeometry x="140" y="10" width="10" height="20" as="geometry" />
        </mxCell>
        <mxCell id="mWUIPyh_Am5T3KipkHSC-52" value="" style="rounded=0;whiteSpace=wrap;html=1;fillColor=#f5f5f5;fontColor=#333333;strokeColor=#666666;direction=south;" vertex="1" parent="mWUIPyh_Am5T3KipkHSC-54">
          <mxGeometry x="170" y="10" width="10" height="20" as="geometry" />
        </mxCell>
        <mxCell id="mWUIPyh_Am5T3KipkHSC-53" value="&lt;b&gt;&lt;font style=&quot;font-size: 14px;&quot;&gt;...&lt;/font&gt;&lt;/b&gt;" style="text;html=1;align=center;verticalAlign=middle;resizable=0;points=[];autosize=1;strokeColor=none;fillColor=none;" vertex="1" parent="mWUIPyh_Am5T3KipkHSC-54">
          <mxGeometry x="140" width="40" height="30" as="geometry" />
        </mxCell>
        <mxCell id="mWUIPyh_Am5T3KipkHSC-55" value="" style="group" vertex="1" connectable="0" parent="1">
          <mxGeometry x="40" y="440" width="240" height="120" as="geometry" />
        </mxCell>
        <mxCell id="mWUIPyh_Am5T3KipkHSC-1" value="" style="shape=cylinder3;whiteSpace=wrap;html=1;boundedLbl=1;backgroundOutline=1;size=15;fillColor=#e1d5e7;strokeColor=#9673a6;direction=south;" vertex="1" parent="mWUIPyh_Am5T3KipkHSC-55">
          <mxGeometry width="240" height="120" as="geometry" />
        </mxCell>
        <mxCell id="mWUIPyh_Am5T3KipkHSC-14" value="" style="rounded=0;whiteSpace=wrap;html=1;fillColor=#f5f5f5;fontColor=#333333;strokeColor=#666666;direction=south;" vertex="1" parent="mWUIPyh_Am5T3KipkHSC-55">
          <mxGeometry x="10" y="10" width="10" height="20" as="geometry" />
        </mxCell>
        <mxCell id="mWUIPyh_Am5T3KipkHSC-15" value="" style="rounded=0;whiteSpace=wrap;html=1;fillColor=#f5f5f5;fontColor=#333333;strokeColor=#666666;direction=south;" vertex="1" parent="mWUIPyh_Am5T3KipkHSC-55">
          <mxGeometry x="30" y="10" width="10" height="20" as="geometry" />
        </mxCell>
        <mxCell id="mWUIPyh_Am5T3KipkHSC-16" value="" style="rounded=0;whiteSpace=wrap;html=1;fillColor=#f5f5f5;fontColor=#333333;strokeColor=#666666;direction=south;" vertex="1" parent="mWUIPyh_Am5T3KipkHSC-55">
          <mxGeometry x="50" y="10" width="10" height="20" as="geometry" />
        </mxCell>
        <mxCell id="mWUIPyh_Am5T3KipkHSC-17" value="" style="rounded=0;whiteSpace=wrap;html=1;fillColor=#f5f5f5;fontColor=#333333;strokeColor=#666666;direction=south;" vertex="1" parent="mWUIPyh_Am5T3KipkHSC-55">
          <mxGeometry x="70" y="10" width="10" height="20" as="geometry" />
        </mxCell>
        <mxCell id="mWUIPyh_Am5T3KipkHSC-18" value="" style="rounded=0;whiteSpace=wrap;html=1;fillColor=#f5f5f5;fontColor=#333333;strokeColor=#666666;direction=south;" vertex="1" parent="mWUIPyh_Am5T3KipkHSC-55">
          <mxGeometry x="90" y="10" width="10" height="20" as="geometry" />
        </mxCell>
        <mxCell id="mWUIPyh_Am5T3KipkHSC-19" value="" style="rounded=0;whiteSpace=wrap;html=1;fillColor=#f5f5f5;fontColor=#333333;strokeColor=#666666;direction=south;" vertex="1" parent="mWUIPyh_Am5T3KipkHSC-55">
          <mxGeometry x="110" y="10" width="10" height="20" as="geometry" />
        </mxCell>
        <mxCell id="mWUIPyh_Am5T3KipkHSC-20" value="" style="rounded=0;whiteSpace=wrap;html=1;fillColor=#f5f5f5;fontColor=#333333;strokeColor=#666666;direction=south;" vertex="1" parent="mWUIPyh_Am5T3KipkHSC-55">
          <mxGeometry x="130" y="10" width="10" height="20" as="geometry" />
        </mxCell>
        <mxCell id="mWUIPyh_Am5T3KipkHSC-21" value="" style="rounded=0;whiteSpace=wrap;html=1;fillColor=#f5f5f5;fontColor=#333333;strokeColor=#666666;direction=south;" vertex="1" parent="mWUIPyh_Am5T3KipkHSC-55">
          <mxGeometry x="150" y="10" width="10" height="20" as="geometry" />
        </mxCell>
        <mxCell id="mWUIPyh_Am5T3KipkHSC-22" value="" style="rounded=0;whiteSpace=wrap;html=1;fillColor=#f5f5f5;fontColor=#333333;strokeColor=#666666;direction=south;" vertex="1" parent="mWUIPyh_Am5T3KipkHSC-55">
          <mxGeometry x="190" y="10" width="10" height="20" as="geometry" />
        </mxCell>
        <mxCell id="mWUIPyh_Am5T3KipkHSC-23" value="&lt;b&gt;&lt;font style=&quot;font-size: 14px;&quot;&gt;...&lt;/font&gt;&lt;/b&gt;" style="text;html=1;align=center;verticalAlign=middle;resizable=0;points=[];autosize=1;strokeColor=none;fillColor=none;" vertex="1" parent="mWUIPyh_Am5T3KipkHSC-55">
          <mxGeometry x="150" width="40" height="30" as="geometry" />
        </mxCell>
        <mxCell id="mWUIPyh_Am5T3KipkHSC-24" value="" style="rounded=0;whiteSpace=wrap;html=1;fillColor=#f5f5f5;fontColor=#333333;strokeColor=#666666;direction=south;" vertex="1" parent="mWUIPyh_Am5T3KipkHSC-55">
          <mxGeometry x="10" y="40" width="10" height="20" as="geometry" />
        </mxCell>
        <mxCell id="mWUIPyh_Am5T3KipkHSC-25" value="" style="rounded=0;whiteSpace=wrap;html=1;fillColor=#f5f5f5;fontColor=#333333;strokeColor=#666666;direction=south;" vertex="1" parent="mWUIPyh_Am5T3KipkHSC-55">
          <mxGeometry x="30" y="40" width="10" height="20" as="geometry" />
        </mxCell>
        <mxCell id="mWUIPyh_Am5T3KipkHSC-26" value="" style="rounded=0;whiteSpace=wrap;html=1;fillColor=#f5f5f5;fontColor=#333333;strokeColor=#666666;direction=south;" vertex="1" parent="mWUIPyh_Am5T3KipkHSC-55">
          <mxGeometry x="50" y="40" width="10" height="20" as="geometry" />
        </mxCell>
        <mxCell id="mWUIPyh_Am5T3KipkHSC-27" value="" style="rounded=0;whiteSpace=wrap;html=1;fillColor=#f5f5f5;fontColor=#333333;strokeColor=#666666;direction=south;" vertex="1" parent="mWUIPyh_Am5T3KipkHSC-55">
          <mxGeometry x="70" y="40" width="10" height="20" as="geometry" />
        </mxCell>
        <mxCell id="mWUIPyh_Am5T3KipkHSC-28" value="" style="rounded=0;whiteSpace=wrap;html=1;fillColor=#f5f5f5;fontColor=#333333;strokeColor=#666666;direction=south;" vertex="1" parent="mWUIPyh_Am5T3KipkHSC-55">
          <mxGeometry x="90" y="40" width="10" height="20" as="geometry" />
        </mxCell>
        <mxCell id="mWUIPyh_Am5T3KipkHSC-29" value="" style="rounded=0;whiteSpace=wrap;html=1;fillColor=#f5f5f5;fontColor=#333333;strokeColor=#666666;direction=south;" vertex="1" parent="mWUIPyh_Am5T3KipkHSC-55">
          <mxGeometry x="110" y="40" width="10" height="20" as="geometry" />
        </mxCell>
        <mxCell id="mWUIPyh_Am5T3KipkHSC-30" value="" style="rounded=0;whiteSpace=wrap;html=1;fillColor=#f5f5f5;fontColor=#333333;strokeColor=#666666;direction=south;" vertex="1" parent="mWUIPyh_Am5T3KipkHSC-55">
          <mxGeometry x="130" y="40" width="10" height="20" as="geometry" />
        </mxCell>
        <mxCell id="mWUIPyh_Am5T3KipkHSC-31" value="" style="rounded=0;whiteSpace=wrap;html=1;fillColor=#f5f5f5;fontColor=#333333;strokeColor=#666666;direction=south;" vertex="1" parent="mWUIPyh_Am5T3KipkHSC-55">
          <mxGeometry x="150" y="40" width="10" height="20" as="geometry" />
        </mxCell>
        <mxCell id="mWUIPyh_Am5T3KipkHSC-32" value="" style="rounded=0;whiteSpace=wrap;html=1;fillColor=#f5f5f5;fontColor=#333333;strokeColor=#666666;direction=south;" vertex="1" parent="mWUIPyh_Am5T3KipkHSC-55">
          <mxGeometry x="190" y="40" width="10" height="20" as="geometry" />
        </mxCell>
        <mxCell id="mWUIPyh_Am5T3KipkHSC-33" value="&lt;b&gt;&lt;font style=&quot;font-size: 14px;&quot;&gt;...&lt;/font&gt;&lt;/b&gt;" style="text;html=1;align=center;verticalAlign=middle;resizable=0;points=[];autosize=1;strokeColor=none;fillColor=none;" vertex="1" parent="mWUIPyh_Am5T3KipkHSC-55">
          <mxGeometry x="150" y="30" width="40" height="30" as="geometry" />
        </mxCell>
        <mxCell id="mWUIPyh_Am5T3KipkHSC-34" value="" style="rounded=0;whiteSpace=wrap;html=1;fillColor=#f5f5f5;fontColor=#333333;strokeColor=#666666;direction=south;" vertex="1" parent="mWUIPyh_Am5T3KipkHSC-55">
          <mxGeometry x="10" y="90" width="10" height="20" as="geometry" />
        </mxCell>
        <mxCell id="mWUIPyh_Am5T3KipkHSC-35" value="" style="rounded=0;whiteSpace=wrap;html=1;fillColor=#f5f5f5;fontColor=#333333;strokeColor=#666666;direction=south;" vertex="1" parent="mWUIPyh_Am5T3KipkHSC-55">
          <mxGeometry x="30" y="90" width="10" height="20" as="geometry" />
        </mxCell>
        <mxCell id="mWUIPyh_Am5T3KipkHSC-36" value="" style="rounded=0;whiteSpace=wrap;html=1;fillColor=#f5f5f5;fontColor=#333333;strokeColor=#666666;direction=south;" vertex="1" parent="mWUIPyh_Am5T3KipkHSC-55">
          <mxGeometry x="50" y="90" width="10" height="20" as="geometry" />
        </mxCell>
        <mxCell id="mWUIPyh_Am5T3KipkHSC-37" value="" style="rounded=0;whiteSpace=wrap;html=1;fillColor=#f5f5f5;fontColor=#333333;strokeColor=#666666;direction=south;" vertex="1" parent="mWUIPyh_Am5T3KipkHSC-55">
          <mxGeometry x="70" y="90" width="10" height="20" as="geometry" />
        </mxCell>
        <mxCell id="mWUIPyh_Am5T3KipkHSC-38" value="" style="rounded=0;whiteSpace=wrap;html=1;fillColor=#f5f5f5;fontColor=#333333;strokeColor=#666666;direction=south;" vertex="1" parent="mWUIPyh_Am5T3KipkHSC-55">
          <mxGeometry x="90" y="90" width="10" height="20" as="geometry" />
        </mxCell>
        <mxCell id="mWUIPyh_Am5T3KipkHSC-39" value="" style="rounded=0;whiteSpace=wrap;html=1;fillColor=#f5f5f5;fontColor=#333333;strokeColor=#666666;direction=south;" vertex="1" parent="mWUIPyh_Am5T3KipkHSC-55">
          <mxGeometry x="110" y="90" width="10" height="20" as="geometry" />
        </mxCell>
        <mxCell id="mWUIPyh_Am5T3KipkHSC-40" value="" style="rounded=0;whiteSpace=wrap;html=1;fillColor=#f5f5f5;fontColor=#333333;strokeColor=#666666;direction=south;" vertex="1" parent="mWUIPyh_Am5T3KipkHSC-55">
          <mxGeometry x="130" y="90" width="10" height="20" as="geometry" />
        </mxCell>
        <mxCell id="mWUIPyh_Am5T3KipkHSC-41" value="" style="rounded=0;whiteSpace=wrap;html=1;fillColor=#f5f5f5;fontColor=#333333;strokeColor=#666666;direction=south;" vertex="1" parent="mWUIPyh_Am5T3KipkHSC-55">
          <mxGeometry x="150" y="90" width="10" height="20" as="geometry" />
        </mxCell>
        <mxCell id="mWUIPyh_Am5T3KipkHSC-42" value="" style="rounded=0;whiteSpace=wrap;html=1;fillColor=#f5f5f5;fontColor=#333333;strokeColor=#666666;direction=south;" vertex="1" parent="mWUIPyh_Am5T3KipkHSC-55">
          <mxGeometry x="190" y="90" width="10" height="20" as="geometry" />
        </mxCell>
        <mxCell id="mWUIPyh_Am5T3KipkHSC-43" value="&lt;b&gt;&lt;font style=&quot;font-size: 14px;&quot;&gt;...&lt;/font&gt;&lt;/b&gt;" style="text;html=1;align=center;verticalAlign=middle;resizable=0;points=[];autosize=1;strokeColor=none;fillColor=none;" vertex="1" parent="mWUIPyh_Am5T3KipkHSC-55">
          <mxGeometry x="150" y="80" width="40" height="30" as="geometry" />
        </mxCell>
        <mxCell id="mWUIPyh_Am5T3KipkHSC-57" value="" style="shape=cylinder3;whiteSpace=wrap;html=1;boundedLbl=1;backgroundOutline=1;size=11.344827586206918;direction=south;fillColor=#ffe6cc;strokeColor=#d79b00;" vertex="1" parent="1">
          <mxGeometry x="250" y="600" width="30" height="40" as="geometry" />
        </mxCell>
        <mxCell id="mWUIPyh_Am5T3KipkHSC-59" value="" style="shape=cylinder3;whiteSpace=wrap;html=1;boundedLbl=1;backgroundOutline=1;size=15;fillColor=#ffe6cc;strokeColor=#d79b00;direction=south;" vertex="1" parent="1">
          <mxGeometry x="260" y="440" width="40" height="120" as="geometry" />
        </mxCell>
        <mxCell id="mWUIPyh_Am5T3KipkHSC-60" value="" style="group" vertex="1" connectable="0" parent="1">
          <mxGeometry x="520" y="440" width="240" height="120" as="geometry" />
        </mxCell>
        <mxCell id="mWUIPyh_Am5T3KipkHSC-61" value="" style="shape=cylinder3;whiteSpace=wrap;html=1;boundedLbl=1;backgroundOutline=1;size=15;fillColor=#e1d5e7;strokeColor=#9673a6;direction=south;" vertex="1" parent="mWUIPyh_Am5T3KipkHSC-60">
          <mxGeometry width="240" height="120" as="geometry" />
        </mxCell>
        <mxCell id="mWUIPyh_Am5T3KipkHSC-62" value="" style="rounded=0;whiteSpace=wrap;html=1;fillColor=#f5f5f5;fontColor=#333333;strokeColor=#666666;direction=south;" vertex="1" parent="mWUIPyh_Am5T3KipkHSC-60">
          <mxGeometry x="10" y="10" width="10" height="20" as="geometry" />
        </mxCell>
        <mxCell id="mWUIPyh_Am5T3KipkHSC-63" value="" style="rounded=0;whiteSpace=wrap;html=1;fillColor=#f5f5f5;fontColor=#333333;strokeColor=#666666;direction=south;" vertex="1" parent="mWUIPyh_Am5T3KipkHSC-60">
          <mxGeometry x="30" y="10" width="10" height="20" as="geometry" />
        </mxCell>
        <mxCell id="mWUIPyh_Am5T3KipkHSC-64" value="" style="rounded=0;whiteSpace=wrap;html=1;fillColor=#f5f5f5;fontColor=#333333;strokeColor=#666666;direction=south;" vertex="1" parent="mWUIPyh_Am5T3KipkHSC-60">
          <mxGeometry x="50" y="10" width="10" height="20" as="geometry" />
        </mxCell>
        <mxCell id="mWUIPyh_Am5T3KipkHSC-65" value="" style="rounded=0;whiteSpace=wrap;html=1;fillColor=#f5f5f5;fontColor=#333333;strokeColor=#666666;direction=south;" vertex="1" parent="mWUIPyh_Am5T3KipkHSC-60">
          <mxGeometry x="70" y="10" width="10" height="20" as="geometry" />
        </mxCell>
        <mxCell id="mWUIPyh_Am5T3KipkHSC-66" value="" style="rounded=0;whiteSpace=wrap;html=1;fillColor=#f5f5f5;fontColor=#333333;strokeColor=#666666;direction=south;" vertex="1" parent="mWUIPyh_Am5T3KipkHSC-60">
          <mxGeometry x="90" y="10" width="10" height="20" as="geometry" />
        </mxCell>
        <mxCell id="mWUIPyh_Am5T3KipkHSC-67" value="" style="rounded=0;whiteSpace=wrap;html=1;fillColor=#f5f5f5;fontColor=#333333;strokeColor=#666666;direction=south;" vertex="1" parent="mWUIPyh_Am5T3KipkHSC-60">
          <mxGeometry x="110" y="10" width="10" height="20" as="geometry" />
        </mxCell>
        <mxCell id="mWUIPyh_Am5T3KipkHSC-68" value="" style="rounded=0;whiteSpace=wrap;html=1;fillColor=#f5f5f5;fontColor=#333333;strokeColor=#666666;direction=south;" vertex="1" parent="mWUIPyh_Am5T3KipkHSC-60">
          <mxGeometry x="130" y="10" width="10" height="20" as="geometry" />
        </mxCell>
        <mxCell id="mWUIPyh_Am5T3KipkHSC-69" value="" style="rounded=0;whiteSpace=wrap;html=1;fillColor=#f5f5f5;fontColor=#333333;strokeColor=#666666;direction=south;" vertex="1" parent="mWUIPyh_Am5T3KipkHSC-60">
          <mxGeometry x="150" y="10" width="10" height="20" as="geometry" />
        </mxCell>
        <mxCell id="mWUIPyh_Am5T3KipkHSC-70" value="" style="rounded=0;whiteSpace=wrap;html=1;fillColor=#f5f5f5;fontColor=#333333;strokeColor=#666666;direction=south;" vertex="1" parent="mWUIPyh_Am5T3KipkHSC-60">
          <mxGeometry x="190" y="10" width="10" height="20" as="geometry" />
        </mxCell>
        <mxCell id="mWUIPyh_Am5T3KipkHSC-71" value="&lt;b&gt;&lt;font style=&quot;font-size: 14px;&quot;&gt;...&lt;/font&gt;&lt;/b&gt;" style="text;html=1;align=center;verticalAlign=middle;resizable=0;points=[];autosize=1;strokeColor=none;fillColor=none;" vertex="1" parent="mWUIPyh_Am5T3KipkHSC-60">
          <mxGeometry x="150" width="40" height="30" as="geometry" />
        </mxCell>
        <mxCell id="mWUIPyh_Am5T3KipkHSC-72" value="" style="rounded=0;whiteSpace=wrap;html=1;fillColor=#f5f5f5;fontColor=#333333;strokeColor=#666666;direction=south;" vertex="1" parent="mWUIPyh_Am5T3KipkHSC-60">
          <mxGeometry x="10" y="40" width="10" height="20" as="geometry" />
        </mxCell>
        <mxCell id="mWUIPyh_Am5T3KipkHSC-73" value="" style="rounded=0;whiteSpace=wrap;html=1;fillColor=#f5f5f5;fontColor=#333333;strokeColor=#666666;direction=south;" vertex="1" parent="mWUIPyh_Am5T3KipkHSC-60">
          <mxGeometry x="30" y="40" width="10" height="20" as="geometry" />
        </mxCell>
        <mxCell id="mWUIPyh_Am5T3KipkHSC-74" value="" style="rounded=0;whiteSpace=wrap;html=1;fillColor=#f5f5f5;fontColor=#333333;strokeColor=#666666;direction=south;" vertex="1" parent="mWUIPyh_Am5T3KipkHSC-60">
          <mxGeometry x="50" y="40" width="10" height="20" as="geometry" />
        </mxCell>
        <mxCell id="mWUIPyh_Am5T3KipkHSC-75" value="" style="rounded=0;whiteSpace=wrap;html=1;fillColor=#f5f5f5;fontColor=#333333;strokeColor=#666666;direction=south;" vertex="1" parent="mWUIPyh_Am5T3KipkHSC-60">
          <mxGeometry x="70" y="40" width="10" height="20" as="geometry" />
        </mxCell>
        <mxCell id="mWUIPyh_Am5T3KipkHSC-76" value="" style="rounded=0;whiteSpace=wrap;html=1;fillColor=#f5f5f5;fontColor=#333333;strokeColor=#666666;direction=south;" vertex="1" parent="mWUIPyh_Am5T3KipkHSC-60">
          <mxGeometry x="90" y="40" width="10" height="20" as="geometry" />
        </mxCell>
        <mxCell id="mWUIPyh_Am5T3KipkHSC-77" value="" style="rounded=0;whiteSpace=wrap;html=1;fillColor=#f5f5f5;fontColor=#333333;strokeColor=#666666;direction=south;" vertex="1" parent="mWUIPyh_Am5T3KipkHSC-60">
          <mxGeometry x="110" y="40" width="10" height="20" as="geometry" />
        </mxCell>
        <mxCell id="mWUIPyh_Am5T3KipkHSC-78" value="" style="rounded=0;whiteSpace=wrap;html=1;fillColor=#f5f5f5;fontColor=#333333;strokeColor=#666666;direction=south;" vertex="1" parent="mWUIPyh_Am5T3KipkHSC-60">
          <mxGeometry x="130" y="40" width="10" height="20" as="geometry" />
        </mxCell>
        <mxCell id="mWUIPyh_Am5T3KipkHSC-79" value="" style="rounded=0;whiteSpace=wrap;html=1;fillColor=#f5f5f5;fontColor=#333333;strokeColor=#666666;direction=south;" vertex="1" parent="mWUIPyh_Am5T3KipkHSC-60">
          <mxGeometry x="150" y="40" width="10" height="20" as="geometry" />
        </mxCell>
        <mxCell id="mWUIPyh_Am5T3KipkHSC-80" value="" style="rounded=0;whiteSpace=wrap;html=1;fillColor=#f5f5f5;fontColor=#333333;strokeColor=#666666;direction=south;" vertex="1" parent="mWUIPyh_Am5T3KipkHSC-60">
          <mxGeometry x="190" y="40" width="10" height="20" as="geometry" />
        </mxCell>
        <mxCell id="mWUIPyh_Am5T3KipkHSC-81" value="&lt;b&gt;&lt;font style=&quot;font-size: 14px;&quot;&gt;...&lt;/font&gt;&lt;/b&gt;" style="text;html=1;align=center;verticalAlign=middle;resizable=0;points=[];autosize=1;strokeColor=none;fillColor=none;" vertex="1" parent="mWUIPyh_Am5T3KipkHSC-60">
          <mxGeometry x="150" y="30" width="40" height="30" as="geometry" />
        </mxCell>
        <mxCell id="mWUIPyh_Am5T3KipkHSC-82" value="" style="rounded=0;whiteSpace=wrap;html=1;fillColor=#f5f5f5;fontColor=#333333;strokeColor=#666666;direction=south;" vertex="1" parent="mWUIPyh_Am5T3KipkHSC-60">
          <mxGeometry x="10" y="90" width="10" height="20" as="geometry" />
        </mxCell>
        <mxCell id="mWUIPyh_Am5T3KipkHSC-83" value="" style="rounded=0;whiteSpace=wrap;html=1;fillColor=#f5f5f5;fontColor=#333333;strokeColor=#666666;direction=south;" vertex="1" parent="mWUIPyh_Am5T3KipkHSC-60">
          <mxGeometry x="30" y="90" width="10" height="20" as="geometry" />
        </mxCell>
        <mxCell id="mWUIPyh_Am5T3KipkHSC-84" value="" style="rounded=0;whiteSpace=wrap;html=1;fillColor=#f5f5f5;fontColor=#333333;strokeColor=#666666;direction=south;" vertex="1" parent="mWUIPyh_Am5T3KipkHSC-60">
          <mxGeometry x="50" y="90" width="10" height="20" as="geometry" />
        </mxCell>
        <mxCell id="mWUIPyh_Am5T3KipkHSC-85" value="" style="rounded=0;whiteSpace=wrap;html=1;fillColor=#f5f5f5;fontColor=#333333;strokeColor=#666666;direction=south;" vertex="1" parent="mWUIPyh_Am5T3KipkHSC-60">
          <mxGeometry x="70" y="90" width="10" height="20" as="geometry" />
        </mxCell>
        <mxCell id="mWUIPyh_Am5T3KipkHSC-86" value="" style="rounded=0;whiteSpace=wrap;html=1;fillColor=#f5f5f5;fontColor=#333333;strokeColor=#666666;direction=south;" vertex="1" parent="mWUIPyh_Am5T3KipkHSC-60">
          <mxGeometry x="90" y="90" width="10" height="20" as="geometry" />
        </mxCell>
        <mxCell id="mWUIPyh_Am5T3KipkHSC-87" value="" style="rounded=0;whiteSpace=wrap;html=1;fillColor=#f5f5f5;fontColor=#333333;strokeColor=#666666;direction=south;" vertex="1" parent="mWUIPyh_Am5T3KipkHSC-60">
          <mxGeometry x="110" y="90" width="10" height="20" as="geometry" />
        </mxCell>
        <mxCell id="mWUIPyh_Am5T3KipkHSC-88" value="" style="rounded=0;whiteSpace=wrap;html=1;fillColor=#f5f5f5;fontColor=#333333;strokeColor=#666666;direction=south;" vertex="1" parent="mWUIPyh_Am5T3KipkHSC-60">
          <mxGeometry x="130" y="90" width="10" height="20" as="geometry" />
        </mxCell>
        <mxCell id="mWUIPyh_Am5T3KipkHSC-89" value="" style="rounded=0;whiteSpace=wrap;html=1;fillColor=#f5f5f5;fontColor=#333333;strokeColor=#666666;direction=south;" vertex="1" parent="mWUIPyh_Am5T3KipkHSC-60">
          <mxGeometry x="150" y="90" width="10" height="20" as="geometry" />
        </mxCell>
        <mxCell id="mWUIPyh_Am5T3KipkHSC-90" value="" style="rounded=0;whiteSpace=wrap;html=1;fillColor=#f5f5f5;fontColor=#333333;strokeColor=#666666;direction=south;" vertex="1" parent="mWUIPyh_Am5T3KipkHSC-60">
          <mxGeometry x="190" y="90" width="10" height="20" as="geometry" />
        </mxCell>
        <mxCell id="mWUIPyh_Am5T3KipkHSC-91" value="&lt;b&gt;&lt;font style=&quot;font-size: 14px;&quot;&gt;...&lt;/font&gt;&lt;/b&gt;" style="text;html=1;align=center;verticalAlign=middle;resizable=0;points=[];autosize=1;strokeColor=none;fillColor=none;" vertex="1" parent="mWUIPyh_Am5T3KipkHSC-60">
          <mxGeometry x="150" y="80" width="40" height="30" as="geometry" />
        </mxCell>
        <mxCell id="mWUIPyh_Am5T3KipkHSC-92" value="" style="group" vertex="1" connectable="0" parent="1">
          <mxGeometry x="40" y="680" width="220" height="40" as="geometry" />
        </mxCell>
        <mxCell id="mWUIPyh_Am5T3KipkHSC-93" value="" style="shape=cylinder3;whiteSpace=wrap;html=1;boundedLbl=1;backgroundOutline=1;size=11.344827586206918;direction=south;fillColor=#e1d5e7;strokeColor=#9673a6;" vertex="1" parent="mWUIPyh_Am5T3KipkHSC-92">
          <mxGeometry width="220" height="40" as="geometry" />
        </mxCell>
        <mxCell id="mWUIPyh_Am5T3KipkHSC-94" value="" style="group" vertex="1" connectable="0" parent="mWUIPyh_Am5T3KipkHSC-92">
          <mxGeometry x="10" width="190" height="30" as="geometry" />
        </mxCell>
        <mxCell id="mWUIPyh_Am5T3KipkHSC-95" value="" style="rounded=0;whiteSpace=wrap;html=1;fillColor=#f5f5f5;fontColor=#333333;strokeColor=#666666;direction=south;" vertex="1" parent="mWUIPyh_Am5T3KipkHSC-94">
          <mxGeometry y="10" width="10" height="20" as="geometry" />
        </mxCell>
        <mxCell id="mWUIPyh_Am5T3KipkHSC-96" value="" style="rounded=0;whiteSpace=wrap;html=1;fillColor=#f5f5f5;fontColor=#333333;strokeColor=#666666;direction=south;" vertex="1" parent="mWUIPyh_Am5T3KipkHSC-94">
          <mxGeometry x="20" y="10" width="10" height="20" as="geometry" />
        </mxCell>
        <mxCell id="mWUIPyh_Am5T3KipkHSC-97" value="" style="rounded=0;whiteSpace=wrap;html=1;fillColor=#f5f5f5;fontColor=#333333;strokeColor=#666666;direction=south;" vertex="1" parent="mWUIPyh_Am5T3KipkHSC-94">
          <mxGeometry x="40" y="10" width="10" height="20" as="geometry" />
        </mxCell>
        <mxCell id="mWUIPyh_Am5T3KipkHSC-98" value="" style="rounded=0;whiteSpace=wrap;html=1;fillColor=#f5f5f5;fontColor=#333333;strokeColor=#666666;direction=south;" vertex="1" parent="mWUIPyh_Am5T3KipkHSC-94">
          <mxGeometry x="60" y="10" width="10" height="20" as="geometry" />
        </mxCell>
        <mxCell id="mWUIPyh_Am5T3KipkHSC-99" value="" style="rounded=0;whiteSpace=wrap;html=1;fillColor=#f5f5f5;fontColor=#333333;strokeColor=#666666;direction=south;" vertex="1" parent="mWUIPyh_Am5T3KipkHSC-94">
          <mxGeometry x="80" y="10" width="10" height="20" as="geometry" />
        </mxCell>
        <mxCell id="mWUIPyh_Am5T3KipkHSC-100" value="" style="rounded=0;whiteSpace=wrap;html=1;fillColor=#f5f5f5;fontColor=#333333;strokeColor=#666666;direction=south;" vertex="1" parent="mWUIPyh_Am5T3KipkHSC-94">
          <mxGeometry x="100" y="10" width="10" height="20" as="geometry" />
        </mxCell>
        <mxCell id="mWUIPyh_Am5T3KipkHSC-101" value="" style="rounded=0;whiteSpace=wrap;html=1;fillColor=#f5f5f5;fontColor=#333333;strokeColor=#666666;direction=south;" vertex="1" parent="mWUIPyh_Am5T3KipkHSC-94">
          <mxGeometry x="120" y="10" width="10" height="20" as="geometry" />
        </mxCell>
        <mxCell id="mWUIPyh_Am5T3KipkHSC-102" value="" style="rounded=0;whiteSpace=wrap;html=1;fillColor=#f5f5f5;fontColor=#333333;strokeColor=#666666;direction=south;" vertex="1" parent="mWUIPyh_Am5T3KipkHSC-94">
          <mxGeometry x="140" y="10" width="10" height="20" as="geometry" />
        </mxCell>
        <mxCell id="mWUIPyh_Am5T3KipkHSC-103" value="" style="rounded=0;whiteSpace=wrap;html=1;fillColor=#f5f5f5;fontColor=#333333;strokeColor=#666666;direction=south;" vertex="1" parent="mWUIPyh_Am5T3KipkHSC-94">
          <mxGeometry x="170" y="10" width="10" height="20" as="geometry" />
        </mxCell>
        <mxCell id="mWUIPyh_Am5T3KipkHSC-104" value="&lt;b&gt;&lt;font style=&quot;font-size: 14px;&quot;&gt;...&lt;/font&gt;&lt;/b&gt;" style="text;html=1;align=center;verticalAlign=middle;resizable=0;points=[];autosize=1;strokeColor=none;fillColor=none;" vertex="1" parent="mWUIPyh_Am5T3KipkHSC-94">
          <mxGeometry x="140" width="40" height="30" as="geometry" />
        </mxCell>
        <mxCell id="mWUIPyh_Am5T3KipkHSC-105" value="" style="shape=cylinder3;whiteSpace=wrap;html=1;boundedLbl=1;backgroundOutline=1;size=11.344827586206918;direction=south;fillColor=#ffe6cc;strokeColor=#d79b00;" vertex="1" parent="1">
          <mxGeometry x="250" y="680" width="30" height="40" as="geometry" />
        </mxCell>
        <mxCell id="mWUIPyh_Am5T3KipkHSC-106" value="" style="group" vertex="1" connectable="0" parent="1">
          <mxGeometry x="420" y="640" width="220" height="40" as="geometry" />
        </mxCell>
        <mxCell id="mWUIPyh_Am5T3KipkHSC-107" value="" style="shape=cylinder3;whiteSpace=wrap;html=1;boundedLbl=1;backgroundOutline=1;size=11.344827586206918;direction=south;fillColor=#e1d5e7;strokeColor=#9673a6;" vertex="1" parent="mWUIPyh_Am5T3KipkHSC-106">
          <mxGeometry width="220" height="40" as="geometry" />
        </mxCell>
        <mxCell id="mWUIPyh_Am5T3KipkHSC-108" value="" style="group" vertex="1" connectable="0" parent="mWUIPyh_Am5T3KipkHSC-106">
          <mxGeometry x="10" width="190" height="30" as="geometry" />
        </mxCell>
        <mxCell id="mWUIPyh_Am5T3KipkHSC-109" value="" style="rounded=0;whiteSpace=wrap;html=1;fillColor=#f5f5f5;fontColor=#333333;strokeColor=#666666;direction=south;" vertex="1" parent="mWUIPyh_Am5T3KipkHSC-108">
          <mxGeometry y="10" width="10" height="20" as="geometry" />
        </mxCell>
        <mxCell id="mWUIPyh_Am5T3KipkHSC-110" value="" style="rounded=0;whiteSpace=wrap;html=1;fillColor=#f5f5f5;fontColor=#333333;strokeColor=#666666;direction=south;" vertex="1" parent="mWUIPyh_Am5T3KipkHSC-108">
          <mxGeometry x="20" y="10" width="10" height="20" as="geometry" />
        </mxCell>
        <mxCell id="mWUIPyh_Am5T3KipkHSC-111" value="" style="rounded=0;whiteSpace=wrap;html=1;fillColor=#f5f5f5;fontColor=#333333;strokeColor=#666666;direction=south;" vertex="1" parent="mWUIPyh_Am5T3KipkHSC-108">
          <mxGeometry x="40" y="10" width="10" height="20" as="geometry" />
        </mxCell>
        <mxCell id="mWUIPyh_Am5T3KipkHSC-112" value="" style="rounded=0;whiteSpace=wrap;html=1;fillColor=#f5f5f5;fontColor=#333333;strokeColor=#666666;direction=south;" vertex="1" parent="mWUIPyh_Am5T3KipkHSC-108">
          <mxGeometry x="60" y="10" width="10" height="20" as="geometry" />
        </mxCell>
        <mxCell id="mWUIPyh_Am5T3KipkHSC-113" value="" style="rounded=0;whiteSpace=wrap;html=1;fillColor=#f5f5f5;fontColor=#333333;strokeColor=#666666;direction=south;" vertex="1" parent="mWUIPyh_Am5T3KipkHSC-108">
          <mxGeometry x="80" y="10" width="10" height="20" as="geometry" />
        </mxCell>
        <mxCell id="mWUIPyh_Am5T3KipkHSC-114" value="" style="rounded=0;whiteSpace=wrap;html=1;fillColor=#f5f5f5;fontColor=#333333;strokeColor=#666666;direction=south;" vertex="1" parent="mWUIPyh_Am5T3KipkHSC-108">
          <mxGeometry x="100" y="10" width="10" height="20" as="geometry" />
        </mxCell>
        <mxCell id="mWUIPyh_Am5T3KipkHSC-115" value="" style="rounded=0;whiteSpace=wrap;html=1;fillColor=#f5f5f5;fontColor=#333333;strokeColor=#666666;direction=south;" vertex="1" parent="mWUIPyh_Am5T3KipkHSC-108">
          <mxGeometry x="120" y="10" width="10" height="20" as="geometry" />
        </mxCell>
        <mxCell id="mWUIPyh_Am5T3KipkHSC-116" value="" style="rounded=0;whiteSpace=wrap;html=1;fillColor=#f5f5f5;fontColor=#333333;strokeColor=#666666;direction=south;" vertex="1" parent="mWUIPyh_Am5T3KipkHSC-108">
          <mxGeometry x="140" y="10" width="10" height="20" as="geometry" />
        </mxCell>
        <mxCell id="mWUIPyh_Am5T3KipkHSC-117" value="" style="rounded=0;whiteSpace=wrap;html=1;fillColor=#f5f5f5;fontColor=#333333;strokeColor=#666666;direction=south;" vertex="1" parent="mWUIPyh_Am5T3KipkHSC-108">
          <mxGeometry x="170" y="10" width="10" height="20" as="geometry" />
        </mxCell>
        <mxCell id="mWUIPyh_Am5T3KipkHSC-118" value="&lt;b&gt;&lt;font style=&quot;font-size: 14px;&quot;&gt;...&lt;/font&gt;&lt;/b&gt;" style="text;html=1;align=center;verticalAlign=middle;resizable=0;points=[];autosize=1;strokeColor=none;fillColor=none;" vertex="1" parent="mWUIPyh_Am5T3KipkHSC-108">
          <mxGeometry x="140" width="40" height="30" as="geometry" />
        </mxCell>
        <mxCell id="mWUIPyh_Am5T3KipkHSC-120" style="edgeStyle=orthogonalEdgeStyle;rounded=0;orthogonalLoop=1;jettySize=auto;html=1;entryX=0.5;entryY=1;entryDx=0;entryDy=0;entryPerimeter=0;fillColor=#ffe6cc;strokeColor=#FFB570;curved=1;endArrow=diamondThin;endFill=1;startArrow=oval;startFill=1;strokeWidth=7;" edge="1" parent="1" source="mWUIPyh_Am5T3KipkHSC-105" target="mWUIPyh_Am5T3KipkHSC-119">
          <mxGeometry relative="1" as="geometry" />
        </mxCell>
        <mxCell id="mWUIPyh_Am5T3KipkHSC-122" style="edgeStyle=orthogonalEdgeStyle;rounded=0;orthogonalLoop=1;jettySize=auto;html=1;entryX=0.5;entryY=1;entryDx=0;entryDy=0;entryPerimeter=0;fillColor=#ffe6cc;strokeColor=#FFB570;curved=1;endArrow=diamondThin;endFill=1;startArrow=oval;startFill=1;strokeWidth=7;" edge="1" parent="1" source="mWUIPyh_Am5T3KipkHSC-57" target="mWUIPyh_Am5T3KipkHSC-119">
          <mxGeometry relative="1" as="geometry" />
        </mxCell>
        <mxCell id="mWUIPyh_Am5T3KipkHSC-125" style="edgeStyle=orthogonalEdgeStyle;rounded=0;orthogonalLoop=1;jettySize=auto;html=1;entryX=0.5;entryY=1;entryDx=0;entryDy=0;entryPerimeter=0;fillColor=#ffe6cc;strokeColor=#FFB570;curved=1;endArrow=diamondThin;endFill=1;startArrow=oval;startFill=1;strokeWidth=7;exitX=0.5;exitY=0;exitDx=0;exitDy=0;exitPerimeter=0;" edge="1" parent="1" source="mWUIPyh_Am5T3KipkHSC-59" target="mWUIPyh_Am5T3KipkHSC-123">
          <mxGeometry relative="1" as="geometry">
            <mxPoint x="330" y="260" as="sourcePoint" />
            <mxPoint x="410" y="300" as="targetPoint" />
          </mxGeometry>
        </mxCell>
        <mxCell id="mWUIPyh_Am5T3KipkHSC-126" style="edgeStyle=orthogonalEdgeStyle;rounded=0;orthogonalLoop=1;jettySize=auto;html=1;entryX=0.5;entryY=1;entryDx=0;entryDy=0;entryPerimeter=0;fillColor=#ffe6cc;strokeColor=#FFB570;curved=1;endArrow=diamondThin;endFill=1;startArrow=oval;startFill=1;strokeWidth=7;exitX=0;exitY=0.5;exitDx=0;exitDy=0;exitPerimeter=0;" edge="1" parent="1" source="mWUIPyh_Am5T3KipkHSC-119" target="mWUIPyh_Am5T3KipkHSC-123">
          <mxGeometry relative="1" as="geometry">
            <mxPoint x="390" y="490" as="sourcePoint" />
            <mxPoint x="510" y="490" as="targetPoint" />
          </mxGeometry>
        </mxCell>
        <mxCell id="mWUIPyh_Am5T3KipkHSC-133" style="edgeStyle=orthogonalEdgeStyle;rounded=0;orthogonalLoop=1;jettySize=auto;html=1;entryX=0;entryY=0.25;entryDx=0;entryDy=0;fillColor=#dae8fc;strokeColor=#6c8ebf;strokeWidth=7;" edge="1" parent="1" source="mWUIPyh_Am5T3KipkHSC-127" target="mWUIPyh_Am5T3KipkHSC-132">
          <mxGeometry relative="1" as="geometry" />
        </mxCell>
        <mxCell id="mWUIPyh_Am5T3KipkHSC-127" value="" style="shape=document;whiteSpace=wrap;html=1;boundedLbl=1;direction=south;fillColor=#dae8fc;strokeColor=#6c8ebf;" vertex="1" parent="1">
          <mxGeometry x="400" y="720" width="40" height="40" as="geometry" />
        </mxCell>
        <mxCell id="mWUIPyh_Am5T3KipkHSC-129" value="" style="shape=document;whiteSpace=wrap;html=1;boundedLbl=1;direction=north;fillColor=#dae8fc;strokeColor=#6c8ebf;" vertex="1" parent="1">
          <mxGeometry x="360" y="720" width="40" height="40" as="geometry" />
        </mxCell>
        <mxCell id="mWUIPyh_Am5T3KipkHSC-135" style="edgeStyle=orthogonalEdgeStyle;rounded=0;orthogonalLoop=1;jettySize=auto;html=1;entryX=0;entryY=0.75;entryDx=0;entryDy=0;fillColor=#dae8fc;strokeColor=#6c8ebf;strokeWidth=7;" edge="1" parent="1" source="mWUIPyh_Am5T3KipkHSC-130" target="mWUIPyh_Am5T3KipkHSC-132">
          <mxGeometry relative="1" as="geometry" />
        </mxCell>
        <mxCell id="mWUIPyh_Am5T3KipkHSC-130" value="" style="shape=document;whiteSpace=wrap;html=1;boundedLbl=1;direction=south;fillColor=#dae8fc;strokeColor=#6c8ebf;" vertex="1" parent="1">
          <mxGeometry x="400" y="800" width="40" height="40" as="geometry" />
        </mxCell>
        <mxCell id="mWUIPyh_Am5T3KipkHSC-131" value="" style="shape=document;whiteSpace=wrap;html=1;boundedLbl=1;direction=north;fillColor=#dae8fc;strokeColor=#6c8ebf;" vertex="1" parent="1">
          <mxGeometry x="360" y="800" width="40" height="40" as="geometry" />
        </mxCell>
        <mxCell id="mWUIPyh_Am5T3KipkHSC-132" value="" style="rounded=0;whiteSpace=wrap;html=1;fillColor=#dae8fc;strokeColor=#6c8ebf;" vertex="1" parent="1">
          <mxGeometry x="520" y="760" width="80" height="40" as="geometry" />
        </mxCell>
        <mxCell id="mWUIPyh_Am5T3KipkHSC-138" value="followers" style="text;html=1;align=center;verticalAlign=middle;resizable=0;points=[];autosize=1;strokeColor=none;fillColor=none;fontStyle=1" vertex="1" parent="1">
          <mxGeometry x="520" y="730" width="70" height="30" as="geometry" />
        </mxCell>
        <mxCell id="mWUIPyh_Am5T3KipkHSC-139" value="followers" style="text;html=1;align=center;verticalAlign=middle;resizable=0;points=[];autosize=1;strokeColor=none;fillColor=none;fontStyle=1" vertex="1" parent="1">
          <mxGeometry x="420" y="610" width="70" height="30" as="geometry" />
        </mxCell>
        <mxCell id="mWUIPyh_Am5T3KipkHSC-140" value="follow" style="text;html=1;align=center;verticalAlign=middle;resizable=0;points=[];autosize=1;strokeColor=none;fillColor=none;fontStyle=1" vertex="1" parent="1">
          <mxGeometry x="40" y="570" width="50" height="30" as="geometry" />
        </mxCell>
        <mxCell id="mWUIPyh_Am5T3KipkHSC-141" value="unfollow" style="text;html=1;align=center;verticalAlign=middle;resizable=0;points=[];autosize=1;strokeColor=none;fillColor=none;fontStyle=1" vertex="1" parent="1">
          <mxGeometry x="40" y="650" width="70" height="30" as="geometry" />
        </mxCell>
        <mxCell id="mWUIPyh_Am5T3KipkHSC-142" value="postStream" style="text;html=1;align=center;verticalAlign=middle;resizable=0;points=[];autosize=1;strokeColor=none;fillColor=none;fontStyle=1" vertex="1" parent="1">
          <mxGeometry x="40" y="410" width="80" height="30" as="geometry" />
        </mxCell>
        <mxCell id="mWUIPyh_Am5T3KipkHSC-143" value="feedStream" style="text;html=1;align=center;verticalAlign=middle;resizable=0;points=[];autosize=1;strokeColor=none;fillColor=none;fontStyle=1" vertex="1" parent="1">
          <mxGeometry x="520" y="410" width="90" height="30" as="geometry" />
        </mxCell>
        <mxCell id="mWUIPyh_Am5T3KipkHSC-147" value="" style="rounded=0;whiteSpace=wrap;html=1;fillColor=#dae8fc;strokeColor=#6c8ebf;" vertex="1" parent="1">
          <mxGeometry x="240" y="880" width="80" height="40" as="geometry" />
        </mxCell>
        <mxCell id="mWUIPyh_Am5T3KipkHSC-148" value="posts" style="text;html=1;align=center;verticalAlign=middle;resizable=0;points=[];autosize=1;strokeColor=none;fillColor=none;fontStyle=1" vertex="1" parent="1">
          <mxGeometry x="240" y="850" width="50" height="30" as="geometry" />
        </mxCell>
        <mxCell id="mWUIPyh_Am5T3KipkHSC-151" style="edgeStyle=orthogonalEdgeStyle;rounded=0;orthogonalLoop=1;jettySize=auto;html=1;entryX=0;entryY=0.5;entryDx=0;entryDy=0;fillColor=#d5e8d4;strokeColor=#82b366;strokeWidth=7;" edge="1" parent="1" source="mWUIPyh_Am5T3KipkHSC-149" target="mWUIPyh_Am5T3KipkHSC-147">
          <mxGeometry relative="1" as="geometry" />
        </mxCell>
        <mxCell id="mWUIPyh_Am5T3KipkHSC-149" value="" style="shape=process;whiteSpace=wrap;html=1;backgroundOutline=1;fillColor=#d5e8d4;strokeColor=#82b366;" vertex="1" parent="1">
          <mxGeometry x="80" y="880" width="80" height="40" as="geometry" />
        </mxCell>
        <mxCell id="mWUIPyh_Am5T3KipkHSC-150" value="feedEmbed" style="text;html=1;align=center;verticalAlign=middle;resizable=0;points=[];autosize=1;strokeColor=none;fillColor=none;fontStyle=1" vertex="1" parent="1">
          <mxGeometry x="80" y="850" width="80" height="30" as="geometry" />
        </mxCell>
        <mxCell id="mWUIPyh_Am5T3KipkHSC-152" style="edgeStyle=orthogonalEdgeStyle;rounded=0;orthogonalLoop=1;jettySize=auto;html=1;entryX=0;entryY=0.5;entryDx=0;entryDy=0;exitX=0.5;exitY=1;exitDx=0;exitDy=0;exitPerimeter=0;fillColor=#d5e8d4;strokeColor=#82b366;strokeWidth=7;" edge="1" parent="1" source="mWUIPyh_Am5T3KipkHSC-1" target="mWUIPyh_Am5T3KipkHSC-149">
          <mxGeometry relative="1" as="geometry" />
        </mxCell>
        <mxCell id="mWUIPyh_Am5T3KipkHSC-154" style="edgeStyle=orthogonalEdgeStyle;rounded=0;orthogonalLoop=1;jettySize=auto;html=1;entryX=0;entryY=0.5;entryDx=0;entryDy=0;exitX=1;exitY=0.5;exitDx=0;exitDy=0;fillColor=#d5e8d4;strokeColor=#82b366;strokeWidth=7;startArrow=oval;startFill=1;" edge="1" parent="1" source="mWUIPyh_Am5T3KipkHSC-132" target="mWUIPyh_Am5T3KipkHSC-155">
          <mxGeometry relative="1" as="geometry">
            <mxPoint x="690" y="560" as="targetPoint" />
          </mxGeometry>
        </mxCell>
        <mxCell id="mWUIPyh_Am5T3KipkHSC-153" style="edgeStyle=orthogonalEdgeStyle;rounded=0;orthogonalLoop=1;jettySize=auto;html=1;entryX=0;entryY=0.5;entryDx=0;entryDy=0;exitX=1;exitY=0.5;exitDx=0;exitDy=0;fillColor=#d5e8d4;strokeColor=#82b366;strokeWidth=7;startArrow=oval;startFill=1;" edge="1" parent="1" source="mWUIPyh_Am5T3KipkHSC-147" target="mWUIPyh_Am5T3KipkHSC-155">
          <mxGeometry relative="1" as="geometry">
            <Array as="points">
              <mxPoint x="740" y="900" />
            </Array>
          </mxGeometry>
        </mxCell>
        <mxCell id="mWUIPyh_Am5T3KipkHSC-155" value="" style="shape=document;whiteSpace=wrap;html=1;boundedLbl=1;direction=north;fillColor=#dae8fc;strokeColor=#6c8ebf;" vertex="1" parent="1">
          <mxGeometry x="720" y="640" width="40" height="40" as="geometry" />
        </mxCell>
        <mxCell id="mWUIPyh_Am5T3KipkHSC-156" style="edgeStyle=orthogonalEdgeStyle;rounded=0;orthogonalLoop=1;jettySize=auto;html=1;entryX=1;entryY=0;entryDx=0;entryDy=67.5;entryPerimeter=0;fillColor=#dae8fc;strokeColor=#6c8ebf;strokeWidth=7;exitX=0.5;exitY=0;exitDx=0;exitDy=0;" edge="1" parent="1" source="mWUIPyh_Am5T3KipkHSC-155" target="mWUIPyh_Am5T3KipkHSC-61">
          <mxGeometry relative="1" as="geometry" />
        </mxCell>
        <mxCell id="mWUIPyh_Am5T3KipkHSC-157" value="" style="group" vertex="1" connectable="0" parent="1">
          <mxGeometry x="360" y="960" width="220" height="40" as="geometry" />
        </mxCell>
        <mxCell id="mWUIPyh_Am5T3KipkHSC-158" value="" style="shape=cylinder3;whiteSpace=wrap;html=1;boundedLbl=1;backgroundOutline=1;size=11.344827586206918;direction=south;fillColor=#e1d5e7;strokeColor=#9673a6;" vertex="1" parent="mWUIPyh_Am5T3KipkHSC-157">
          <mxGeometry width="220" height="40" as="geometry" />
        </mxCell>
        <mxCell id="mWUIPyh_Am5T3KipkHSC-159" value="" style="group" vertex="1" connectable="0" parent="mWUIPyh_Am5T3KipkHSC-157">
          <mxGeometry x="10" width="190" height="30" as="geometry" />
        </mxCell>
        <mxCell id="mWUIPyh_Am5T3KipkHSC-160" value="" style="rounded=0;whiteSpace=wrap;html=1;fillColor=#f5f5f5;fontColor=#333333;strokeColor=#666666;direction=south;" vertex="1" parent="mWUIPyh_Am5T3KipkHSC-159">
          <mxGeometry y="10" width="10" height="20" as="geometry" />
        </mxCell>
        <mxCell id="mWUIPyh_Am5T3KipkHSC-161" value="" style="rounded=0;whiteSpace=wrap;html=1;fillColor=#f5f5f5;fontColor=#333333;strokeColor=#666666;direction=south;" vertex="1" parent="mWUIPyh_Am5T3KipkHSC-159">
          <mxGeometry x="20" y="10" width="10" height="20" as="geometry" />
        </mxCell>
        <mxCell id="mWUIPyh_Am5T3KipkHSC-162" value="" style="rounded=0;whiteSpace=wrap;html=1;fillColor=#f5f5f5;fontColor=#333333;strokeColor=#666666;direction=south;" vertex="1" parent="mWUIPyh_Am5T3KipkHSC-159">
          <mxGeometry x="40" y="10" width="10" height="20" as="geometry" />
        </mxCell>
        <mxCell id="mWUIPyh_Am5T3KipkHSC-163" value="" style="rounded=0;whiteSpace=wrap;html=1;fillColor=#f5f5f5;fontColor=#333333;strokeColor=#666666;direction=south;" vertex="1" parent="mWUIPyh_Am5T3KipkHSC-159">
          <mxGeometry x="60" y="10" width="10" height="20" as="geometry" />
        </mxCell>
        <mxCell id="mWUIPyh_Am5T3KipkHSC-164" value="" style="rounded=0;whiteSpace=wrap;html=1;fillColor=#f5f5f5;fontColor=#333333;strokeColor=#666666;direction=south;" vertex="1" parent="mWUIPyh_Am5T3KipkHSC-159">
          <mxGeometry x="80" y="10" width="10" height="20" as="geometry" />
        </mxCell>
        <mxCell id="mWUIPyh_Am5T3KipkHSC-165" value="" style="rounded=0;whiteSpace=wrap;html=1;fillColor=#f5f5f5;fontColor=#333333;strokeColor=#666666;direction=south;" vertex="1" parent="mWUIPyh_Am5T3KipkHSC-159">
          <mxGeometry x="100" y="10" width="10" height="20" as="geometry" />
        </mxCell>
        <mxCell id="mWUIPyh_Am5T3KipkHSC-166" value="" style="rounded=0;whiteSpace=wrap;html=1;fillColor=#f5f5f5;fontColor=#333333;strokeColor=#666666;direction=south;" vertex="1" parent="mWUIPyh_Am5T3KipkHSC-159">
          <mxGeometry x="120" y="10" width="10" height="20" as="geometry" />
        </mxCell>
        <mxCell id="mWUIPyh_Am5T3KipkHSC-167" value="" style="rounded=0;whiteSpace=wrap;html=1;fillColor=#f5f5f5;fontColor=#333333;strokeColor=#666666;direction=south;" vertex="1" parent="mWUIPyh_Am5T3KipkHSC-159">
          <mxGeometry x="140" y="10" width="10" height="20" as="geometry" />
        </mxCell>
        <mxCell id="mWUIPyh_Am5T3KipkHSC-168" value="" style="rounded=0;whiteSpace=wrap;html=1;fillColor=#f5f5f5;fontColor=#333333;strokeColor=#666666;direction=south;" vertex="1" parent="mWUIPyh_Am5T3KipkHSC-159">
          <mxGeometry x="170" y="10" width="10" height="20" as="geometry" />
        </mxCell>
        <mxCell id="mWUIPyh_Am5T3KipkHSC-169" value="&lt;b&gt;&lt;font style=&quot;font-size: 14px;&quot;&gt;...&lt;/font&gt;&lt;/b&gt;" style="text;html=1;align=center;verticalAlign=middle;resizable=0;points=[];autosize=1;strokeColor=none;fillColor=none;" vertex="1" parent="mWUIPyh_Am5T3KipkHSC-159">
          <mxGeometry x="140" width="40" height="30" as="geometry" />
        </mxCell>
        <mxCell id="mWUIPyh_Am5T3KipkHSC-172" style="edgeStyle=orthogonalEdgeStyle;rounded=0;orthogonalLoop=1;jettySize=auto;html=1;fillColor=#d5e8d4;strokeColor=#82b366;flowAnimation=1;strokeWidth=7;endArrow=halfCircle;endFill=0;" edge="1" parent="1" source="mWUIPyh_Am5T3KipkHSC-170">
          <mxGeometry relative="1" as="geometry">
            <mxPoint x="740" y="740" as="targetPoint" />
            <Array as="points">
              <mxPoint x="800" y="980" />
              <mxPoint x="800" y="740" />
            </Array>
          </mxGeometry>
        </mxCell>
        <mxCell id="mWUIPyh_Am5T3KipkHSC-170" value="" style="shape=process;whiteSpace=wrap;html=1;backgroundOutline=1;fillColor=#d5e8d4;strokeColor=#82b366;" vertex="1" parent="1">
          <mxGeometry x="640" y="960" width="80" height="40" as="geometry" />
        </mxCell>
        <mxCell id="mWUIPyh_Am5T3KipkHSC-171" style="edgeStyle=orthogonalEdgeStyle;rounded=0;orthogonalLoop=1;jettySize=auto;html=1;entryX=0;entryY=0.5;entryDx=0;entryDy=0;fillColor=#d5e8d4;strokeColor=#82b366;strokeWidth=7;" edge="1" parent="1" source="mWUIPyh_Am5T3KipkHSC-158" target="mWUIPyh_Am5T3KipkHSC-170">
          <mxGeometry relative="1" as="geometry" />
        </mxCell>
        <mxCell id="mWUIPyh_Am5T3KipkHSC-173" value="feedRefresh" style="text;html=1;align=center;verticalAlign=middle;resizable=0;points=[];autosize=1;strokeColor=none;fillColor=none;fontStyle=1" vertex="1" parent="1">
          <mxGeometry x="640" y="930" width="90" height="30" as="geometry" />
        </mxCell>
        <mxCell id="mWUIPyh_Am5T3KipkHSC-174" value="feedRefresh" style="text;html=1;align=center;verticalAlign=middle;resizable=0;points=[];autosize=1;strokeColor=none;fillColor=none;fontStyle=1" vertex="1" parent="1">
          <mxGeometry x="360" y="930" width="90" height="30" as="geometry" />
        </mxCell>
        <mxCell id="mWUIPyh_Am5T3KipkHSC-176" value="" style="group" vertex="1" connectable="0" parent="1">
          <mxGeometry x="60" y="280" width="220" height="40" as="geometry" />
        </mxCell>
        <mxCell id="mWUIPyh_Am5T3KipkHSC-177" value="" style="shape=cylinder3;whiteSpace=wrap;html=1;boundedLbl=1;backgroundOutline=1;size=11.344827586206918;direction=south;fillColor=#e1d5e7;strokeColor=#9673a6;" vertex="1" parent="mWUIPyh_Am5T3KipkHSC-176">
          <mxGeometry width="220" height="40" as="geometry" />
        </mxCell>
        <mxCell id="mWUIPyh_Am5T3KipkHSC-178" value="" style="group" vertex="1" connectable="0" parent="mWUIPyh_Am5T3KipkHSC-176">
          <mxGeometry x="10" width="190" height="30" as="geometry" />
        </mxCell>
        <mxCell id="mWUIPyh_Am5T3KipkHSC-179" value="" style="rounded=0;whiteSpace=wrap;html=1;fillColor=#f5f5f5;fontColor=#333333;strokeColor=#666666;direction=south;" vertex="1" parent="mWUIPyh_Am5T3KipkHSC-178">
          <mxGeometry y="10" width="10" height="20" as="geometry" />
        </mxCell>
        <mxCell id="mWUIPyh_Am5T3KipkHSC-180" value="" style="rounded=0;whiteSpace=wrap;html=1;fillColor=#f5f5f5;fontColor=#333333;strokeColor=#666666;direction=south;" vertex="1" parent="mWUIPyh_Am5T3KipkHSC-178">
          <mxGeometry x="20" y="10" width="10" height="20" as="geometry" />
        </mxCell>
        <mxCell id="mWUIPyh_Am5T3KipkHSC-181" value="" style="rounded=0;whiteSpace=wrap;html=1;fillColor=#f5f5f5;fontColor=#333333;strokeColor=#666666;direction=south;" vertex="1" parent="mWUIPyh_Am5T3KipkHSC-178">
          <mxGeometry x="40" y="10" width="10" height="20" as="geometry" />
        </mxCell>
        <mxCell id="mWUIPyh_Am5T3KipkHSC-182" value="" style="rounded=0;whiteSpace=wrap;html=1;fillColor=#f5f5f5;fontColor=#333333;strokeColor=#666666;direction=south;" vertex="1" parent="mWUIPyh_Am5T3KipkHSC-178">
          <mxGeometry x="60" y="10" width="10" height="20" as="geometry" />
        </mxCell>
        <mxCell id="mWUIPyh_Am5T3KipkHSC-183" value="" style="rounded=0;whiteSpace=wrap;html=1;fillColor=#f5f5f5;fontColor=#333333;strokeColor=#666666;direction=south;" vertex="1" parent="mWUIPyh_Am5T3KipkHSC-178">
          <mxGeometry x="80" y="10" width="10" height="20" as="geometry" />
        </mxCell>
        <mxCell id="mWUIPyh_Am5T3KipkHSC-184" value="" style="rounded=0;whiteSpace=wrap;html=1;fillColor=#f5f5f5;fontColor=#333333;strokeColor=#666666;direction=south;" vertex="1" parent="mWUIPyh_Am5T3KipkHSC-178">
          <mxGeometry x="100" y="10" width="10" height="20" as="geometry" />
        </mxCell>
        <mxCell id="mWUIPyh_Am5T3KipkHSC-185" value="" style="rounded=0;whiteSpace=wrap;html=1;fillColor=#f5f5f5;fontColor=#333333;strokeColor=#666666;direction=south;" vertex="1" parent="mWUIPyh_Am5T3KipkHSC-178">
          <mxGeometry x="120" y="10" width="10" height="20" as="geometry" />
        </mxCell>
        <mxCell id="mWUIPyh_Am5T3KipkHSC-186" value="" style="rounded=0;whiteSpace=wrap;html=1;fillColor=#f5f5f5;fontColor=#333333;strokeColor=#666666;direction=south;" vertex="1" parent="mWUIPyh_Am5T3KipkHSC-178">
          <mxGeometry x="140" y="10" width="10" height="20" as="geometry" />
        </mxCell>
        <mxCell id="mWUIPyh_Am5T3KipkHSC-187" value="" style="rounded=0;whiteSpace=wrap;html=1;fillColor=#f5f5f5;fontColor=#333333;strokeColor=#666666;direction=south;" vertex="1" parent="mWUIPyh_Am5T3KipkHSC-178">
          <mxGeometry x="170" y="10" width="10" height="20" as="geometry" />
        </mxCell>
        <mxCell id="mWUIPyh_Am5T3KipkHSC-188" value="&lt;b&gt;&lt;font style=&quot;font-size: 14px;&quot;&gt;...&lt;/font&gt;&lt;/b&gt;" style="text;html=1;align=center;verticalAlign=middle;resizable=0;points=[];autosize=1;strokeColor=none;fillColor=none;" vertex="1" parent="mWUIPyh_Am5T3KipkHSC-178">
          <mxGeometry x="140" width="40" height="30" as="geometry" />
        </mxCell>
        <mxCell id="mWUIPyh_Am5T3KipkHSC-194" style="edgeStyle=orthogonalEdgeStyle;rounded=0;orthogonalLoop=1;jettySize=auto;html=1;entryX=0;entryY=0.5;entryDx=0;entryDy=0;fillColor=#dae8fc;strokeColor=#6c8ebf;strokeWidth=7;" edge="1" parent="1" source="mWUIPyh_Am5T3KipkHSC-190" target="mWUIPyh_Am5T3KipkHSC-192">
          <mxGeometry relative="1" as="geometry" />
        </mxCell>
        <mxCell id="mWUIPyh_Am5T3KipkHSC-190" value="" style="shape=document;whiteSpace=wrap;html=1;boundedLbl=1;direction=south;fillColor=#dae8fc;strokeColor=#6c8ebf;" vertex="1" parent="1">
          <mxGeometry x="380" y="280" width="40" height="40" as="geometry" />
        </mxCell>
        <mxCell id="mWUIPyh_Am5T3KipkHSC-191" value="" style="shape=document;whiteSpace=wrap;html=1;boundedLbl=1;direction=north;fillColor=#dae8fc;strokeColor=#6c8ebf;" vertex="1" parent="1">
          <mxGeometry x="340" y="280" width="40" height="40" as="geometry" />
        </mxCell>
        <mxCell id="mWUIPyh_Am5T3KipkHSC-195" style="edgeStyle=orthogonalEdgeStyle;rounded=0;orthogonalLoop=1;jettySize=auto;html=1;entryX=0;entryY=0.5;entryDx=0;entryDy=0;fillColor=#dae8fc;strokeColor=#6c8ebf;strokeWidth=7;" edge="1" parent="1" source="mWUIPyh_Am5T3KipkHSC-192" target="mWUIPyh_Am5T3KipkHSC-190">
          <mxGeometry relative="1" as="geometry">
            <Array as="points">
              <mxPoint x="540" y="240" />
              <mxPoint x="400" y="240" />
            </Array>
          </mxGeometry>
        </mxCell>
        <mxCell id="mWUIPyh_Am5T3KipkHSC-192" value="" style="rounded=0;whiteSpace=wrap;html=1;fillColor=#dae8fc;strokeColor=#6c8ebf;" vertex="1" parent="1">
          <mxGeometry x="500" y="280" width="80" height="40" as="geometry" />
        </mxCell>
        <mxCell id="mWUIPyh_Am5T3KipkHSC-193" style="edgeStyle=orthogonalEdgeStyle;rounded=0;orthogonalLoop=1;jettySize=auto;html=1;entryX=0.5;entryY=0;entryDx=0;entryDy=0;fillColor=#dae8fc;strokeColor=#6c8ebf;strokeWidth=7;" edge="1" parent="1" source="mWUIPyh_Am5T3KipkHSC-177" target="mWUIPyh_Am5T3KipkHSC-191">
          <mxGeometry relative="1" as="geometry" />
        </mxCell>
        <mxCell id="mWUIPyh_Am5T3KipkHSC-196" value="postStatistics" style="text;html=1;align=center;verticalAlign=middle;resizable=0;points=[];autosize=1;strokeColor=none;fillColor=none;fontStyle=1" vertex="1" parent="1">
          <mxGeometry x="60" y="250" width="90" height="30" as="geometry" />
        </mxCell>
        <mxCell id="mWUIPyh_Am5T3KipkHSC-197" value="postStatistics" style="text;html=1;align=center;verticalAlign=middle;resizable=0;points=[];autosize=1;strokeColor=none;fillColor=none;fontStyle=1" vertex="1" parent="1">
          <mxGeometry x="500" y="320" width="90" height="30" as="geometry" />
        </mxCell>
      </root>
    </mxGraphModel>
  </diagram>
</mxfile>
